<svg width="92" height="92" viewBox="0 0 92 92" fill="none" xmlns="http://www.w3.org/2000/svg">
<path d="M91.0261 39.0698L83.8537 37.4059C82.8817 33.1217 81.1824 29.0358 78.8296 25.3259L82.7367 19.0584C82.8871 18.8173 82.9514 18.5324 82.9192 18.2501C82.8869 17.9678 82.7601 17.7047 82.5592 17.5037L74.4948 9.43934C74.294 9.23828 74.031 9.1112 73.7486 9.07882C73.4663 9.04645 73.1813 9.1107 72.9402 9.26109L66.6712 13.1675C62.9614 10.8151 58.8758 9.11609 54.5919 8.14416L52.9273 0.97175C52.8628 0.695344 52.7066 0.448898 52.4843 0.272475C52.2619 0.0960511 51.9864 2.28439e-05 51.7026 0L40.2974 0C40.0138 0.000784524 39.7387 0.0974176 39.5169 0.274212C39.2951 0.451005 39.1396 0.69758 39.0756 0.973906L37.4109 8.14631C33.1262 9.11727 29.0396 10.8156 25.3288 13.1675L19.0598 9.26109C18.8187 9.1107 18.5337 9.04645 18.2514 9.07882C17.969 9.1112 17.706 9.23828 17.5052 9.43934L9.44078 17.5037C9.23994 17.7047 9.11308 17.9678 9.08084 18.2501C9.0486 18.5324 9.1129 18.8173 9.26325 19.0584L13.1704 25.3259C10.8176 29.0358 9.11831 33.1217 8.14631 37.4059L0.973188 39.0698C0.696337 39.1343 0.449457 39.2905 0.272747 39.5132C0.0960359 39.7358 -9.71897e-05 40.0117 7.37328e-08 40.296V51.7004C0.000874868 51.9839 0.0974525 52.2588 0.274085 52.4806C0.450717 52.7024 0.697056 52.858 0.973188 52.9223L8.14631 54.5862C9.11831 58.8704 10.8176 62.9563 13.1704 66.6662L9.26325 72.9337C9.11297 73.175 9.04872 73.46 9.08095 73.7423C9.11318 74.0247 9.24 74.2879 9.44078 74.4891L17.5052 82.5527C17.706 82.7538 17.969 82.8809 18.2514 82.9133C18.5337 82.9456 18.8187 82.8814 19.0598 82.731L25.3288 78.8246C29.0384 81.1773 33.1241 82.8763 37.4081 83.8479L39.0727 91.0211C39.1368 91.2973 39.2924 91.5437 39.5142 91.7203C39.736 91.897 40.011 91.9935 40.2946 91.9942H51.7026C51.9861 91.9935 52.2611 91.897 52.4829 91.7203C52.7047 91.5437 52.8603 91.2973 52.9244 91.0211L54.5891 83.8479C58.8731 82.8763 62.9587 81.1773 66.6684 78.8246L72.9373 82.731C73.1784 82.8814 73.4634 82.9456 73.7458 82.9133C74.0281 82.8809 74.2911 82.7538 74.492 82.5527L82.5563 74.4891C82.7571 74.2879 82.8839 74.0247 82.9162 73.7423C82.9484 73.46 82.8842 73.175 82.7339 72.9337L78.8268 66.6662C81.1795 62.9563 82.8788 58.8704 83.8508 54.5862L91.0232 52.9223C91.2994 52.858 91.5459 52.7024 91.7226 52.4807C91.8994 52.2589 91.9961 51.984 91.9971 51.7004V40.296C91.9972 40.0121 91.9013 39.7365 91.7251 39.5139C91.5488 39.2913 91.3025 39.1348 91.0261 39.0698ZM89.4844 50.7006L82.5082 52.3192C82.2736 52.3737 82.0595 52.4943 81.8915 52.6668C81.7234 52.8393 81.6084 53.0565 81.5602 53.2924C80.6329 57.815 78.844 62.1168 76.291 65.9633C76.158 66.1642 76.0856 66.3992 76.0822 66.6401C76.0789 66.8811 76.1449 67.1179 76.2723 67.3224L80.0738 73.4203L73.4225 80.0709L67.3246 76.2702C67.12 76.1429 66.8832 76.077 66.6423 76.0804C66.4014 76.0837 66.1665 76.156 65.9654 76.2888C62.1193 78.8425 57.8174 80.6315 53.2946 81.558C53.0586 81.6063 52.8415 81.7213 52.669 81.8893C52.4965 82.0574 52.3758 82.2714 52.3214 82.506L50.7028 89.4844H41.2972L39.6786 82.5082C39.624 82.2737 39.5033 82.0597 39.3308 81.8917C39.1583 81.7236 38.9413 81.6086 38.7054 81.5602C34.1826 80.6338 29.8806 78.8448 26.0346 76.291C25.8335 76.1582 25.5986 76.0858 25.3577 76.0825C25.1168 76.0792 24.88 76.1451 24.6754 76.2723L18.5775 80.0687L11.9262 73.4182L15.7277 67.3203C15.8551 67.1157 15.9211 66.8789 15.9178 66.638C15.9144 66.397 15.842 66.1621 15.709 65.9611C13.1557 62.1148 11.3668 57.8129 10.4398 53.2903C10.3916 53.0543 10.2766 52.8372 10.1085 52.6647C9.94047 52.4922 9.72642 52.3715 9.49181 52.3171L2.51562 50.7006V41.2951L9.49181 39.675C9.72637 39.6207 9.94039 39.5002 10.1085 39.3278C10.2765 39.1554 10.3915 38.9384 10.4398 38.7025C11.3667 34.1796 13.1556 29.8775 15.709 26.031C15.842 25.83 15.9144 25.5951 15.9178 25.3541C15.9211 25.1132 15.8551 24.8764 15.7277 24.6718L11.9262 18.5739L18.5775 11.9233L24.6754 15.7241C24.8799 15.8515 25.1168 15.9175 25.3577 15.9142C25.5987 15.9108 25.8336 15.8384 26.0346 15.7054C29.8806 13.1516 34.1826 11.3626 38.7054 10.4363C38.9414 10.3878 39.1585 10.2726 39.331 10.1044C39.5035 9.93628 39.6241 9.72216 39.6786 9.4875L41.2972 2.51562H50.7028L52.325 9.4875C52.3794 9.72211 52.5001 9.93616 52.6726 10.1042C52.8451 10.2723 53.0622 10.3873 53.2982 10.4355C57.8209 11.362 62.1229 13.151 65.969 15.7047C66.17 15.8377 66.4049 15.9101 66.6459 15.9134C66.8868 15.9168 67.1236 15.8508 67.3282 15.7234L73.4261 11.9226L80.0774 18.5732L76.2759 24.6711C76.1485 24.8756 76.0825 25.1125 76.0858 25.3534C76.0891 25.5944 76.1616 25.8293 76.2946 26.0303C78.8477 29.8769 80.6366 34.179 81.5638 38.7018C81.6121 38.9377 81.7271 39.1547 81.8951 39.3271C82.0632 39.4995 82.2772 39.62 82.5118 39.6743L89.488 41.2929L89.4844 50.7006Z" fill="white"/>
<g clip-path="url(#clip0_4_550)">
<path d="M22.4314 39.7032L35.1947 45.6941C35.3231 45.7544 35.4666 45.7742 35.6066 45.7516L40.2655 44.9906C42.928 44.556 45.6492 45.442 47.5449 47.3611L51.4439 51.3081C51.6829 51.5499 51.8026 51.87 51.7811 52.2093C51.7595 52.5485 51.6004 52.8509 51.3328 53.0607C50.9264 53.3792 50.3482 53.3933 49.927 53.0948L46.1254 50.4015C45.5859 50.0192 44.8673 50.0627 44.3777 50.5069L41.5996 53.0278C41.3122 53.2886 41.2906 53.733 41.5514 54.0204C41.8122 54.3078 42.2565 54.3294 42.544 54.0686L45.3129 51.5482L49.1144 54.2415C49.5588 54.5564 50.0826 54.7128 50.6058 54.7128C51.1716 54.7128 51.7365 54.5299 52.1999 54.1667C52.7786 53.713 53.1371 53.0319 53.1837 52.2981C53.2303 51.5642 52.9605 50.8434 52.4438 50.3203L49.3525 47.1911C50.9873 46.7855 52.7177 46.852 54.3236 47.3976L55.971 47.9575C56.1507 48.0185 56.3374 48.0486 56.5237 48.0486C56.816 48.0486 57.107 47.9743 57.3668 47.8284C57.3701 47.8265 57.3734 47.8246 57.3765 47.8227L69.5226 40.7394C69.8578 40.5439 69.9711 40.1136 69.7756 39.7784C69.5801 39.443 69.1497 39.3299 68.8146 39.5253L56.6748 46.605C56.5978 46.647 56.5062 46.6548 56.4232 46.6267L54.7758 46.0669C52.6513 45.3451 50.3383 45.3453 48.2175 46.0588C46.0228 44.0358 43.0002 43.1203 40.039 43.6037L35.5949 44.3295L23.0287 38.431C22.6773 38.2661 22.2588 38.4172 22.0939 38.7685C21.929 39.1199 22.0801 39.5383 22.4314 39.7032Z" fill="white"/>
<path d="M69.9013 52.8746C69.731 52.5259 69.31 52.3814 68.9614 52.5517L62.7786 55.5718C62.6729 55.6234 62.5819 55.7007 62.5138 55.7967L62.0164 56.498C61.4182 57.3414 60.6438 58.0407 59.7508 58.5501C59.6814 58.4376 59.6024 58.3291 59.5129 58.2261L58.2848 56.8129C57.3903 55.7835 55.8252 55.6738 54.7957 56.5684L54.6946 56.6563C54.1714 57.111 53.8864 57.7389 53.8495 58.3817C53.8387 58.3807 53.8279 58.3793 53.8172 58.3786C53.1584 58.3324 52.5207 58.5455 52.022 58.9788L51.9207 59.0668C51.3973 59.5217 51.1121 60.1501 51.0755 60.7932C50.4336 60.7398 49.7716 60.9343 49.2482 61.3892L49.1468 61.4773C48.6234 61.9322 48.3383 62.5606 48.3016 63.2037C47.6596 63.1503 46.9975 63.3449 46.474 63.7999L46.3729 63.8878C45.8743 64.3211 45.5743 64.9226 45.528 65.5816C45.4818 66.2406 45.695 66.8781 46.1283 67.3768L46.7218 68.0597L46.4849 68.2692C46.4806 68.2732 46.4762 68.277 46.472 68.2809C46.0144 68.7066 45.2564 68.6958 44.8101 68.2596C44.4275 67.8389 44.4155 67.1983 44.7839 66.7642C45.0246 66.4806 45.0026 66.0584 44.7336 65.8013C44.4646 65.5444 44.042 65.5415 43.7695 65.795L43.6941 65.8651C43.2363 66.2909 42.4782 66.2799 42.0321 65.8438C41.6442 65.4174 41.6359 64.7719 42.0146 64.337C42.2601 64.055 42.2419 63.6303 41.9733 63.3704C41.7048 63.1106 41.2796 63.1064 41.0059 63.361L40.9849 63.3805C40.5272 63.8062 39.7691 63.7954 39.3229 63.3591C38.9395 62.9376 38.9281 62.2962 39.2982 61.8619C39.5153 61.6072 39.5225 61.2346 39.3155 60.9715C39.1084 60.7085 38.7446 60.6281 38.446 60.7792C37.9833 61.0134 37.4216 60.9041 37.0799 60.5136C36.6822 60.0591 36.7327 59.341 37.1913 58.9091L37.947 58.2398L40.3043 56.1007C40.5917 55.8399 40.6133 55.3955 40.3524 55.1081C40.0916 54.8206 39.6472 54.7991 39.3598 55.0599L37.0089 57.1933L36.2524 57.8633C36.2481 57.8672 36.2438 57.871 36.2397 57.8749C35.8522 58.2353 35.5989 58.6916 35.4833 59.1748L35.4781 59.1718C34.1896 58.4416 33.0658 57.4861 32.1378 56.332L31.7371 55.8337C31.6725 55.7533 31.5909 55.6881 31.4983 55.6427L23.0389 51.5044C22.6902 51.3341 22.2693 51.4783 22.0988 51.8268C21.9283 52.1755 22.0726 52.5964 22.4212 52.7669L30.74 56.8363L31.0425 57.2126C32.0824 58.5057 33.3415 59.5763 34.7851 60.3945L35.6606 60.8907C35.7546 61.0854 35.8746 61.2703 36.0223 61.439C36.4496 61.9273 37.0306 62.219 37.6409 62.29C37.5538 63.0104 37.7759 63.7594 38.3025 64.3256C38.3084 64.3318 38.3143 64.3379 38.3202 64.3439C38.8634 64.8871 39.6037 65.1389 40.3293 65.0944C40.3329 65.7108 40.561 66.3258 41.0116 66.8102C41.0174 66.8164 41.0233 66.8225 41.0292 66.8284C41.5906 67.3898 42.3624 67.6398 43.1109 67.5736C43.129 68.1698 43.3561 68.76 43.7894 69.226C43.7952 69.2321 43.8012 69.2382 43.8071 69.2442C44.3097 69.7469 44.9814 69.9997 45.6534 69.9997C46.2902 69.9997 46.9275 69.7727 47.4221 69.3162L47.6728 69.0944C48.063 69.4097 48.539 69.5988 49.0501 69.6346C49.1092 69.6387 49.168 69.6408 49.2268 69.6408C49.8222 69.6408 50.3913 69.4287 50.8451 69.0344L50.9465 68.9463C51.4701 68.4913 51.7551 67.8628 51.7917 67.2196C51.8605 67.2253 51.9295 67.229 51.9986 67.229C52.574 67.229 53.1519 67.0299 53.6193 66.6237L53.7204 66.5358C54.244 66.0808 54.529 65.4524 54.5656 64.8092C54.6344 64.8149 54.7034 64.8186 54.7725 64.8186C55.3479 64.8186 55.9258 64.6194 56.3932 64.2133L56.4943 64.1254C56.9929 63.692 57.2929 63.0906 57.3392 62.4315C57.34 62.4206 57.3401 62.4097 57.3407 62.3987C57.4091 62.4044 57.4778 62.408 57.5465 62.408C58.1219 62.408 58.6997 62.2089 59.167 61.8028L59.2683 61.7148C59.8022 61.2509 60.0879 60.6065 60.1153 59.95C61.326 59.3289 62.3727 58.4248 63.1629 57.3108L63.5566 56.7557L69.5783 53.8142C69.927 53.6442 70.0717 53.2234 69.9013 52.8746ZM50.025 67.8856L49.9236 67.9737C49.7084 68.1607 49.4338 68.2528 49.1486 68.2329C48.8642 68.2129 48.6044 68.0833 48.4174 67.8681L47.1893 66.4549C47.0022 66.2397 46.9102 65.9644 46.9302 65.6799C46.9501 65.3954 47.0797 65.1357 47.295 64.9486L47.3961 64.8607C47.5979 64.6853 47.8474 64.5994 48.0958 64.5994C48.3944 64.5994 48.6915 64.7237 48.9023 64.9663L50.1304 66.3796C50.5165 66.8239 50.4692 67.4995 50.025 67.8856ZM52.7986 65.4753L52.6975 65.5632C52.2532 65.9493 51.5774 65.902 51.1912 65.4576L49.9631 64.0442C49.577 63.5998 49.6243 62.9242 50.0685 62.5382L50.1699 62.4501C50.6143 62.064 51.29 62.1113 51.6762 62.5557L52.9043 63.9689C53.2904 64.4133 53.2431 65.0891 52.7986 65.4753ZM55.9373 62.3335C55.9174 62.618 55.7878 62.8777 55.5725 63.0648L55.4714 63.1527C55.027 63.5388 54.3513 63.4915 53.9651 63.0471L52.737 61.6338C52.3508 61.1894 52.3982 60.5136 52.8425 60.1275L52.9438 60.0395C53.1398 59.8693 53.3854 59.7778 53.6426 59.7778C53.6679 59.7778 53.6934 59.7786 53.7189 59.7804C54.0033 59.8003 54.2631 59.9299 54.4501 60.1451L55.6782 61.5584C55.8653 61.7738 55.9573 62.049 55.9373 62.3335ZM58.3466 60.6542L58.2453 60.7422C57.801 61.1283 57.1252 61.081 56.739 60.6366L55.5109 59.2233C55.3238 59.0081 55.2318 58.7328 55.2518 58.4484C55.2717 58.1639 55.4012 57.9042 55.6166 57.7171L55.7177 57.6292C56.1621 57.2431 56.8379 57.2904 57.224 57.7348L58.4521 59.148C58.8383 59.5923 58.7909 60.2681 58.3466 60.6542Z" fill="white"/>
<path d="M43.4585 41.6646L45.4035 42.378C45.5821 42.4435 45.7698 42.4762 45.9575 42.4762C46.1452 42.4762 46.3329 42.4435 46.5116 42.378L48.4565 41.6646C50.2169 41.0191 51.7893 39.9238 53.0037 38.497C54.2046 37.0862 55.0311 35.3821 55.394 33.5688C55.4702 33.1882 55.2235 32.818 54.8429 32.7418C54.4619 32.6654 54.092 32.9124 54.0159 33.2929C53.3716 36.5122 51.056 39.2144 47.9727 40.345L46.0276 41.0583C45.9824 41.0749 45.9326 41.0749 45.8874 41.0583L43.9423 40.345C40.2168 38.9788 37.7138 35.3948 37.7138 31.4268V25.319C37.7138 25.1531 37.832 25.0096 37.9949 24.978L46.0008 23.4188L53.9207 24.9765C54.0832 25.0084 54.2012 25.1519 54.2012 25.3174V30.4356C54.2012 30.8237 54.5158 31.1384 54.9039 31.1384C55.292 31.1384 55.6066 30.8237 55.6066 30.4356V25.3173C55.6066 24.4819 55.0117 23.7586 54.192 23.5974L46.1371 22.0132C46.048 21.9957 45.9563 21.9956 45.8671 22.0129L37.7262 23.5984C36.9045 23.7584 36.3083 24.482 36.3083 25.319V31.4269C36.3083 35.982 39.1818 40.0963 43.4585 41.6646Z" fill="white"/>
<path d="M46.1344 24.8775C46.0453 24.8599 45.9536 24.8599 45.8644 24.8772L39.6876 26.0801C39.3575 26.1444 39.1192 26.4335 39.1192 26.7699V31.4269C39.1192 34.8079 41.2519 37.8616 44.4262 39.0256L45.7155 39.4984C45.7935 39.5271 45.8755 39.5414 45.9574 39.5414C46.0394 39.5414 46.1213 39.527 46.1993 39.4984L47.4887 39.0256C50.6629 37.8617 52.7957 34.8079 52.7957 31.4269V26.7656C52.7957 26.4298 52.5581 26.1409 52.2285 26.0761L46.1344 24.8775ZM51.3902 31.4269C51.3902 34.2208 49.6279 36.7442 47.0048 37.7061L45.9575 38.0903L44.9101 37.7062C42.287 36.7442 40.5247 34.2209 40.5247 31.427V27.349L45.9981 26.2831L51.3902 27.3436V31.4269Z" fill="white"/>
<path d="M44.1541 32.7291C43.8713 32.4632 43.4267 32.477 43.1607 32.7596C42.8949 33.0424 42.9086 33.4871 43.1913 33.753L44.3256 34.8197C44.4563 34.9426 44.6286 35.0104 44.8069 35.0104C44.8218 35.0104 44.8368 35.01 44.8518 35.009C45.0458 34.9967 45.226 34.9044 45.3496 34.7543L49.0235 30.2902C49.2701 29.9905 49.2271 29.5476 48.9275 29.301C48.6278 29.0544 48.1849 29.0974 47.9383 29.397L44.7414 33.2814L44.1541 32.7291Z" fill="white"/>
</g>
<defs>
<clipPath id="clip0_4_550">
<rect width="48" height="48" fill="white" transform="translate(22 22)"/>
</clipPath>
</defs>
</svg>
