<svg width="92" height="92" viewBox="0 0 92 92" fill="none" xmlns="http://www.w3.org/2000/svg">
<path d="M91.0261 39.0698L83.8537 37.4059C82.8817 33.1217 81.1824 29.0358 78.8296 25.3259L82.7367 19.0584C82.8871 18.8173 82.9514 18.5324 82.9192 18.2501C82.8869 17.9678 82.7601 17.7047 82.5592 17.5037L74.4948 9.43934C74.294 9.23828 74.031 9.1112 73.7486 9.07882C73.4663 9.04645 73.1813 9.1107 72.9402 9.26109L66.6712 13.1675C62.9614 10.8151 58.8758 9.11609 54.5919 8.14416L52.9273 0.97175C52.8628 0.695344 52.7066 0.448898 52.4843 0.272475C52.2619 0.0960511 51.9864 2.28439e-05 51.7026 0L40.2974 0C40.0138 0.000784524 39.7387 0.0974176 39.5169 0.274212C39.2951 0.451005 39.1396 0.69758 39.0756 0.973906L37.4109 8.14631C33.1262 9.11727 29.0396 10.8156 25.3288 13.1675L19.0598 9.26109C18.8187 9.1107 18.5337 9.04645 18.2514 9.07882C17.969 9.1112 17.706 9.23828 17.5052 9.43934L9.44078 17.5037C9.23994 17.7047 9.11308 17.9678 9.08084 18.2501C9.0486 18.5324 9.1129 18.8173 9.26325 19.0584L13.1704 25.3259C10.8176 29.0358 9.11831 33.1217 8.14631 37.4059L0.973188 39.0698C0.696337 39.1343 0.449457 39.2905 0.272747 39.5132C0.0960359 39.7358 -9.71897e-05 40.0117 7.37328e-08 40.296V51.7004C0.000874868 51.9839 0.0974525 52.2588 0.274085 52.4806C0.450717 52.7024 0.697056 52.858 0.973188 52.9223L8.14631 54.5862C9.11831 58.8704 10.8176 62.9563 13.1704 66.6662L9.26325 72.9337C9.11297 73.175 9.04872 73.46 9.08095 73.7423C9.11318 74.0247 9.24 74.2879 9.44078 74.4891L17.5052 82.5527C17.706 82.7538 17.969 82.8809 18.2514 82.9133C18.5337 82.9456 18.8187 82.8814 19.0598 82.731L25.3288 78.8246C29.0384 81.1773 33.1241 82.8763 37.4081 83.8479L39.0727 91.0211C39.1368 91.2973 39.2924 91.5437 39.5142 91.7203C39.736 91.897 40.011 91.9935 40.2946 91.9942H51.7026C51.9861 91.9935 52.2611 91.897 52.4829 91.7203C52.7047 91.5437 52.8603 91.2973 52.9244 91.0211L54.5891 83.8479C58.8731 82.8763 62.9587 81.1773 66.6684 78.8246L72.9373 82.731C73.1784 82.8814 73.4634 82.9456 73.7458 82.9133C74.0281 82.8809 74.2911 82.7538 74.492 82.5527L82.5563 74.4891C82.7571 74.2879 82.8839 74.0247 82.9162 73.7423C82.9484 73.46 82.8842 73.175 82.7339 72.9337L78.8268 66.6662C81.1795 62.9563 82.8788 58.8704 83.8508 54.5862L91.0232 52.9223C91.2994 52.858 91.5459 52.7024 91.7226 52.4807C91.8994 52.2589 91.9961 51.984 91.9971 51.7004V40.296C91.9972 40.0121 91.9013 39.7365 91.7251 39.5139C91.5488 39.2913 91.3025 39.1348 91.0261 39.0698ZM89.4844 50.7006L82.5082 52.3192C82.2736 52.3737 82.0595 52.4943 81.8915 52.6668C81.7234 52.8393 81.6084 53.0565 81.5602 53.2924C80.6329 57.815 78.844 62.1168 76.291 65.9633C76.158 66.1642 76.0856 66.3992 76.0822 66.6401C76.0789 66.8811 76.1449 67.1179 76.2723 67.3224L80.0738 73.4203L73.4225 80.0709L67.3246 76.2702C67.12 76.1429 66.8832 76.077 66.6423 76.0804C66.4014 76.0837 66.1665 76.156 65.9654 76.2888C62.1193 78.8425 57.8174 80.6315 53.2946 81.558C53.0586 81.6063 52.8415 81.7213 52.669 81.8893C52.4965 82.0574 52.3758 82.2714 52.3214 82.506L50.7028 89.4844H41.2972L39.6786 82.5082C39.624 82.2737 39.5033 82.0597 39.3308 81.8917C39.1583 81.7236 38.9413 81.6086 38.7054 81.5602C34.1826 80.6338 29.8806 78.8448 26.0346 76.291C25.8335 76.1582 25.5986 76.0858 25.3577 76.0825C25.1168 76.0792 24.88 76.1451 24.6754 76.2723L18.5775 80.0687L11.9262 73.4182L15.7277 67.3203C15.8551 67.1157 15.9211 66.8789 15.9178 66.638C15.9144 66.397 15.842 66.1621 15.709 65.9611C13.1557 62.1148 11.3668 57.8129 10.4398 53.2903C10.3916 53.0543 10.2766 52.8372 10.1085 52.6647C9.94047 52.4922 9.72642 52.3715 9.49181 52.3171L2.51562 50.7006V41.2951L9.49181 39.675C9.72637 39.6207 9.94039 39.5002 10.1085 39.3278C10.2765 39.1554 10.3915 38.9384 10.4398 38.7025C11.3667 34.1796 13.1556 29.8775 15.709 26.031C15.842 25.83 15.9144 25.5951 15.9178 25.3541C15.9211 25.1132 15.8551 24.8764 15.7277 24.6718L11.9262 18.5739L18.5775 11.9233L24.6754 15.7241C24.8799 15.8515 25.1168 15.9175 25.3577 15.9142C25.5987 15.9108 25.8336 15.8384 26.0346 15.7054C29.8806 13.1516 34.1826 11.3626 38.7054 10.4363C38.9414 10.3878 39.1585 10.2726 39.331 10.1044C39.5035 9.93628 39.6241 9.72216 39.6786 9.4875L41.2972 2.51562H50.7028L52.325 9.4875C52.3794 9.72211 52.5001 9.93616 52.6726 10.1042C52.8451 10.2723 53.0622 10.3873 53.2982 10.4355C57.8209 11.362 62.1229 13.151 65.969 15.7047C66.17 15.8377 66.4049 15.9101 66.6459 15.9134C66.8868 15.9168 67.1236 15.8508 67.3282 15.7234L73.4261 11.9226L80.0774 18.5732L76.2759 24.6711C76.1485 24.8756 76.0825 25.1125 76.0858 25.3534C76.0891 25.5944 76.1616 25.8293 76.2946 26.0303C78.8477 29.8769 80.6366 34.179 81.5638 38.7018C81.6121 38.9377 81.7271 39.1547 81.8951 39.3271C82.0632 39.4995 82.2772 39.62 82.5118 39.6743L89.488 41.2929L89.4844 50.7006Z" fill="white"/>
<path d="M61.5222 57.5693C61.1501 57.5693 60.8484 57.871 60.8484 58.2432C60.8484 58.6153 61.1501 58.917 61.5222 58.917H61.5294C61.9015 58.917 62.1996 58.6153 62.1996 58.2432C62.1996 57.871 61.8944 57.5693 61.5222 57.5693Z" fill="white"/>
<path d="M39.1963 57.5693C38.8242 57.5693 38.5225 57.871 38.5225 58.2432C38.5225 58.6153 38.8242 58.917 39.1963 58.917H39.2035C39.5756 58.917 39.8737 58.6153 39.8737 58.2432C39.8737 57.871 39.5685 57.5693 39.1963 57.5693Z" fill="white"/>
<path d="M68.2983 50.0737L66.1434 48.533L66.1124 42.0168C66.1075 41.0133 65.3593 40.2848 64.3333 40.2848H59.1026C59.1638 39.9296 59.0852 39.5803 58.878 39.3102C58.6509 39.0143 58.2934 38.8445 57.8973 38.8445H53.2016C52.8295 38.8445 52.5278 39.1462 52.5278 39.5183C52.5278 39.8904 52.8295 40.1921 53.2016 40.1921L57.7393 40.1922L53.083 57.5694H42.8498C42.8637 56.8945 42.672 56.262 42.2873 55.7608C41.7568 55.0694 40.9332 54.6886 39.9682 54.6886C38.2339 54.6886 36.5123 55.919 35.8342 57.5694L32.8725 57.5693L34.1891 52.6559C34.2854 52.2964 34.0721 51.927 33.7126 51.8306C33.3537 51.7347 32.9837 51.9476 32.8873 52.3071L31.5365 57.3487C31.4298 57.7468 31.5017 58.1488 31.7339 58.4513C31.961 58.7472 32.3185 58.917 32.7146 58.917H35.5428C35.529 59.5919 35.7206 60.2243 36.1053 60.7256C36.6358 61.417 37.4594 61.7978 38.4244 61.7978C40.1587 61.7978 41.8803 60.5674 42.5584 58.917H57.8688C57.8549 59.5919 58.0466 60.2243 58.4312 60.7256C58.9617 61.417 59.7853 61.7978 60.7503 61.7978C62.4846 61.7978 64.2062 60.5674 64.8843 58.917H65.1232C66.2208 58.917 67.309 58.065 67.6004 56.9772L68.9257 52.0312C69.1349 51.25 68.8946 50.4999 68.2983 50.0737ZM41.4262 58.0688C41.0803 59.3596 39.7057 60.4501 38.4244 60.4501C37.888 60.4501 37.4441 60.2566 37.1744 59.9052C36.8844 59.5273 36.8105 58.9991 36.9664 58.4176C37.3122 57.1268 38.6869 56.0362 39.9682 56.0362C40.5046 56.0362 40.9485 56.2298 41.2182 56.5811C41.5081 56.9591 41.5821 57.4874 41.4262 58.0688ZM64.7942 48.2069H60.4299C60.316 48.2069 60.1615 48.1826 60.0722 48.0663C59.9936 47.9639 59.9769 47.7993 60.0264 47.6147L60.6053 45.4542C60.7396 44.953 61.2889 44.5133 61.7807 44.5133H64.7765L64.7942 48.2069ZM63.7521 58.0688C63.4062 59.3596 62.0316 60.4501 60.7503 60.4501C60.2139 60.4501 59.77 60.2566 59.5003 59.9052C59.2103 59.5273 59.1364 58.9991 59.2923 58.4176C59.6381 57.1268 61.0128 56.0362 62.2941 56.0362C62.8305 56.0362 63.2744 56.2298 63.5441 56.5811C63.834 56.9591 63.908 57.4874 63.7521 58.0688ZM66.2986 56.6285C66.1691 57.1119 65.6535 57.537 65.1758 57.5666C65.189 56.8928 64.9972 56.2614 64.6132 55.7609C64.0826 55.0695 63.259 54.6887 62.294 54.6887C60.5597 54.6887 58.8382 55.9191 58.16 57.5695H54.4782L55.6609 53.1556H63.7861C64.1582 53.1556 64.4599 52.8539 64.4599 52.4818C64.4599 52.1097 64.1582 51.808 63.7861 51.808H56.0219L58.7484 41.6326H64.3331C64.5291 41.6326 64.763 41.7004 64.7645 42.0234L64.77 43.1657H61.7806C60.683 43.1657 59.5948 44.0178 59.3034 45.1055L58.7245 47.2661C58.5658 47.8585 58.6673 48.4492 59.003 48.8867C59.3287 49.3112 59.8488 49.5546 60.4298 49.5546H65.2551L67.5144 51.17C67.7065 51.3073 67.6467 51.597 67.6238 51.6826L67.5902 51.808H66.6669C66.2947 51.808 65.993 52.1097 65.993 52.4818C65.993 52.8539 66.2947 53.1556 66.6669 53.1556H67.2291L66.2986 56.6285Z" fill="white"/>
<path d="M40.2382 51.7152C46.1694 51.7152 50.9947 46.8899 50.9947 40.9587C50.9947 35.0274 46.1694 30.2021 40.2382 30.2021C34.3071 30.2021 29.4817 35.0275 29.4817 40.9587C29.4817 46.8898 34.3071 51.7152 40.2382 51.7152ZM40.2382 31.5498C45.4263 31.5498 49.6471 35.7706 49.6471 40.9587C49.6471 46.1467 45.4264 50.3675 40.2382 50.3675C35.0501 50.3675 30.8293 46.1467 30.8293 40.9587C30.8293 35.7706 35.0502 31.5498 40.2382 31.5498Z" fill="white"/>
<path d="M37.3575 44.5133C37.5299 44.5133 37.7024 44.4475 37.8339 44.3159L39.2982 42.8516C39.5816 42.993 39.9007 43.0729 40.2382 43.0729C41.404 43.0729 42.3524 42.1244 42.3524 40.9587C42.3524 40.6212 42.2724 40.3021 42.1311 40.0187L45.756 36.3939C46.0191 36.1308 46.0191 35.7041 45.756 35.441C45.4928 35.1778 45.0662 35.1779 44.8031 35.441L41.1782 39.0658C40.8949 38.9245 40.5758 38.8446 40.2382 38.8446C39.0724 38.8446 38.124 39.7931 38.124 40.9588C38.124 41.2964 38.204 41.6155 38.3452 41.8989L36.881 43.3631C36.6178 43.6263 36.6178 44.0529 36.881 44.316C37.0126 44.4475 37.185 44.5133 37.3575 44.5133ZM40.2382 40.1922C40.6609 40.1922 41.0048 40.5361 41.0048 40.9587C41.0048 41.3814 40.6608 41.7253 40.2382 41.7253C39.8156 41.7253 39.4717 41.3814 39.4717 40.9587C39.4717 40.5361 39.8156 40.1922 40.2382 40.1922Z" fill="white"/>
<path d="M40.2382 35.1506C40.6104 35.1506 40.912 34.8489 40.912 34.4768V33.7566C40.912 33.3845 40.6104 33.0828 40.2382 33.0828C39.8661 33.0828 39.5644 33.3845 39.5644 33.7566V34.4768C39.5644 34.849 39.8661 35.1506 40.2382 35.1506Z" fill="white"/>
<path d="M40.2382 46.7666C39.8661 46.7666 39.5644 47.0683 39.5644 47.4404V48.1606C39.5644 48.5327 39.8661 48.8344 40.2382 48.8344C40.6104 48.8344 40.912 48.5327 40.912 48.1606V47.4404C40.912 47.0683 40.6104 46.7666 40.2382 46.7666Z" fill="white"/>
<path d="M46.7199 41.6326H47.4401C47.8122 41.6326 48.1139 41.3309 48.1139 40.9587C48.1139 40.5866 47.8122 40.2849 47.4401 40.2849H46.7199C46.3478 40.2849 46.0461 40.5866 46.0461 40.9587C46.0461 41.3309 46.3478 41.6326 46.7199 41.6326Z" fill="white"/>
<path d="M34.4303 40.9587C34.4303 40.5866 34.1287 40.2849 33.7565 40.2849H33.0363C32.6642 40.2849 32.3625 40.5866 32.3625 40.9587C32.3625 41.3309 32.6642 41.6326 33.0363 41.6326H33.7565C34.1287 41.6326 34.4303 41.3309 34.4303 40.9587Z" fill="white"/>
<path d="M30.8757 49.6472H23.6738C23.3017 49.6472 23 49.9489 23 50.321C23 50.6932 23.3017 50.9949 23.6738 50.9949H30.8757C31.2478 50.9949 31.5495 50.6932 31.5495 50.321C31.5495 49.9489 31.2478 49.6472 30.8757 49.6472Z" fill="white"/>
<path d="M30.1556 52.5281H25.8344C25.4622 52.5281 25.1605 52.8298 25.1605 53.2019C25.1605 53.574 25.4622 53.8757 25.8344 53.8757H30.1556C30.5277 53.8757 30.8294 53.574 30.8294 53.2019C30.8294 52.8298 30.5277 52.5281 30.1556 52.5281Z" fill="white"/>
<path d="M29.4354 55.4087H27.995C27.6229 55.4087 27.3212 55.7104 27.3212 56.0825C27.3212 56.4547 27.6229 56.7563 27.995 56.7563H29.4354C29.8075 56.7563 30.1092 56.4547 30.1092 56.0825C30.1092 55.7104 29.8075 55.4087 29.4354 55.4087Z" fill="white"/>
</svg>
