<svg width="92" height="92" viewBox="0 0 92 92" fill="none" xmlns="http://www.w3.org/2000/svg">
<path d="M91.0261 39.0698L83.8537 37.4059C82.8817 33.1217 81.1824 29.0358 78.8296 25.3259L82.7367 19.0584C82.8871 18.8173 82.9514 18.5324 82.9192 18.2501C82.8869 17.9678 82.7601 17.7047 82.5592 17.5037L74.4948 9.43934C74.294 9.23828 74.031 9.1112 73.7486 9.07882C73.4663 9.04645 73.1813 9.1107 72.9402 9.26109L66.6713 13.1675C62.9614 10.8151 58.8758 9.11609 54.5919 8.14416L52.9273 0.97175C52.8628 0.695344 52.7066 0.448898 52.4843 0.272475C52.2619 0.0960511 51.9864 2.28439e-05 51.7026 0L40.2974 0C40.0138 0.000784524 39.7387 0.0974176 39.5169 0.274212C39.2951 0.451005 39.1396 0.69758 39.0756 0.973906L37.4109 8.14631C33.1262 9.11727 29.0396 10.8156 25.3288 13.1675L19.0598 9.26109C18.8187 9.1107 18.5337 9.04645 18.2514 9.07882C17.969 9.1112 17.706 9.23828 17.5052 9.43934L9.44078 17.5037C9.23994 17.7047 9.11308 17.9678 9.08084 18.2501C9.0486 18.5324 9.1129 18.8173 9.26325 19.0584L13.1704 25.3259C10.8176 29.0358 9.11831 33.1217 8.14631 37.4059L0.973188 39.0698C0.696337 39.1343 0.449457 39.2905 0.272747 39.5132C0.0960359 39.7358 -9.71897e-05 40.0117 7.37328e-08 40.296V51.7004C0.000874868 51.9839 0.0974525 52.2588 0.274085 52.4806C0.450717 52.7024 0.697056 52.858 0.973188 52.9223L8.14631 54.5862C9.11831 58.8704 10.8176 62.9563 13.1704 66.6662L9.26325 72.9337C9.11297 73.175 9.04872 73.46 9.08095 73.7423C9.11318 74.0247 9.24 74.2879 9.44078 74.4891L17.5052 82.5528C17.706 82.7538 17.969 82.8809 18.2514 82.9133C18.5337 82.9456 18.8187 82.8814 19.0598 82.731L25.3288 78.8246C29.0384 81.1773 33.1241 82.8763 37.4081 83.8479L39.0727 91.0211C39.1368 91.2973 39.2925 91.5437 39.5142 91.7203C39.736 91.897 40.011 91.9935 40.2946 91.9942H51.7026C51.9861 91.9935 52.2611 91.897 52.4829 91.7203C52.7047 91.5437 52.8603 91.2973 52.9244 91.0211L54.5891 83.8479C58.8731 82.8763 62.9587 81.1773 66.6684 78.8246L72.9373 82.731C73.1784 82.8814 73.4634 82.9456 73.7458 82.9133C74.0281 82.8809 74.2911 82.7538 74.492 82.5528L82.5563 74.4891C82.7571 74.2879 82.8839 74.0247 82.9162 73.7423C82.9484 73.46 82.8842 73.175 82.7339 72.9337L78.8267 66.6662C81.1795 62.9563 82.8788 58.8704 83.8508 54.5862L91.0232 52.9223C91.2994 52.858 91.5459 52.7024 91.7226 52.4807C91.8994 52.2589 91.9961 51.984 91.9971 51.7004V40.296C91.9972 40.0121 91.9013 39.7365 91.7251 39.5139C91.5488 39.2913 91.3025 39.1348 91.0261 39.0698V39.0698ZM89.4844 50.7006L82.5082 52.3192C82.2736 52.3737 82.0595 52.4943 81.8915 52.6668C81.7234 52.8393 81.6084 53.0565 81.5602 53.2924C80.6329 57.815 78.844 62.1168 76.291 65.9633C76.158 66.1642 76.0856 66.3992 76.0822 66.6401C76.0789 66.8811 76.1449 67.1179 76.2723 67.3224L80.0738 73.4203L73.4225 80.0709L67.3246 76.2702C67.12 76.1429 66.8832 76.077 66.6423 76.0804C66.4014 76.0837 66.1665 76.156 65.9654 76.2888C62.1193 78.8425 57.8174 80.6315 53.2946 81.558C53.0586 81.6063 52.8415 81.7213 52.669 81.8893C52.4965 82.0574 52.3758 82.2714 52.3214 82.506L50.7028 89.4844H41.2972L39.6786 82.5082C39.624 82.2737 39.5033 82.0597 39.3308 81.8917C39.1583 81.7236 38.9413 81.6086 38.7054 81.5602C34.1826 80.6338 29.8806 78.8448 26.0346 76.291C25.8335 76.1582 25.5986 76.0858 25.3577 76.0825C25.1168 76.0792 24.88 76.1451 24.6754 76.2723L18.5775 80.0688L11.9262 73.4182L15.7277 67.3203C15.8551 67.1157 15.9211 66.8789 15.9178 66.638C15.9144 66.397 15.842 66.1621 15.709 65.9611C13.1557 62.1148 11.3668 57.8129 10.4398 53.2903C10.3916 53.0543 10.2766 52.8372 10.1085 52.6647C9.94047 52.4922 9.72642 52.3715 9.49181 52.3171L2.51562 50.7006V41.2951L9.49181 39.675C9.72637 39.6207 9.94039 39.5002 10.1085 39.3278C10.2765 39.1554 10.3915 38.9384 10.4398 38.7025C11.3667 34.1796 13.1556 29.8775 15.709 26.031C15.842 25.83 15.9144 25.5951 15.9178 25.3541C15.9211 25.1132 15.8551 24.8764 15.7277 24.6718L11.9262 18.5739L18.5775 11.9233L24.6754 15.7241C24.8799 15.8515 25.1168 15.9175 25.3577 15.9142C25.5987 15.9108 25.8336 15.8384 26.0346 15.7054C29.8806 13.1516 34.1826 11.3626 38.7054 10.4363C38.9414 10.3878 39.1585 10.2726 39.331 10.1044C39.5035 9.93628 39.6241 9.72216 39.6786 9.4875L41.2972 2.51562H50.7028L52.325 9.4875C52.3794 9.72211 52.5001 9.93616 52.6726 10.1042C52.8451 10.2723 53.0622 10.3873 53.2982 10.4355C57.8209 11.362 62.1229 13.151 65.969 15.7047C66.17 15.8377 66.4049 15.9101 66.6459 15.9134C66.8868 15.9168 67.1237 15.8508 67.3282 15.7234L73.4261 11.9226L80.0774 18.5732L76.2759 24.6711C76.1485 24.8756 76.0825 25.1125 76.0858 25.3534C76.0892 25.5944 76.1616 25.8293 76.2946 26.0302C78.8477 29.8769 80.6366 34.179 81.5638 38.7018C81.6121 38.9377 81.7271 39.1547 81.8951 39.3271C82.0632 39.4995 82.2772 39.62 82.5118 39.6743L89.488 41.2929L89.4844 50.7006Z" fill="white"/>
<g clip-path="url(#clip0_101_114)">
<path d="M67.0574 43.4501C66.7638 43.0611 66.4601 42.6586 66.4117 42.3462C66.3593 42.0136 66.5272 41.5252 66.6898 41.0535C66.9263 40.3696 67.1931 39.5942 66.9532 38.8552C66.7093 38.102 66.0294 37.627 65.4294 37.2077C65.0263 36.9262 64.6104 36.6353 64.4633 36.3477C64.3128 36.0534 64.3215 35.5401 64.3295 35.0443C64.3416 34.3173 64.3551 33.4943 63.8948 32.8614C63.4326 32.2258 62.6425 31.9846 61.9457 31.7722C61.4734 31.6285 60.9843 31.4786 60.7538 31.2482C60.5227 31.0171 60.3735 30.5279 60.2298 30.0556C60.0175 29.3589 59.7762 28.5688 59.14 28.1065C58.5077 27.6463 57.684 27.659 56.9577 27.6718C56.4619 27.6812 55.9479 27.6886 55.6543 27.5381C55.3667 27.3916 55.0758 26.9751 54.7943 26.5719C54.3757 25.972 53.9007 25.2927 53.1475 25.0481C52.4078 24.8083 51.6311 25.075 50.9465 25.3102C50.4748 25.4728 49.985 25.64 49.6538 25.589C49.3414 25.5399 48.9389 25.2363 48.5492 24.9433C47.9633 24.5012 47.2982 24 46.5 24C45.7018 24 45.0367 24.5012 44.4501 24.9433C44.0611 25.2369 43.6586 25.5399 43.3462 25.589C43.015 25.6421 42.5259 25.4728 42.0535 25.3102C41.3689 25.0743 40.5935 24.8076 39.8552 25.0468C39.102 25.2913 38.627 25.9706 38.2077 26.5706C37.9262 26.973 37.6353 27.3896 37.3477 27.5361C37.0534 27.6866 36.5395 27.6772 36.0443 27.6698C35.3173 27.6557 34.4943 27.6436 33.8614 28.1045C33.2258 28.5667 32.9846 29.3569 32.7722 30.0536C32.6285 30.5266 32.4786 31.015 32.2482 31.2462C32.0171 31.4773 31.5279 31.6265 31.0549 31.7709C30.3582 31.9832 29.5688 32.2244 29.1058 32.86C28.6456 33.4923 28.659 34.316 28.6711 35.0429C28.6792 35.5395 28.6872 36.0521 28.5374 36.347C28.391 36.6339 27.9744 36.9249 27.5719 37.2064C26.972 37.6256 26.2927 38.1006 26.0475 38.8538C25.8076 39.5935 26.075 40.3689 26.3108 41.0535C26.4734 41.5259 26.6421 42.0136 26.5897 42.3462C26.5406 42.6586 26.2376 43.0611 25.944 43.4501C25.5012 44.0367 25 44.7018 25 45.5C25 46.2982 25.5012 46.9633 25.9433 47.5499C26.2369 47.9389 26.5399 48.342 26.589 48.6545L27.9166 48.4455C27.8158 47.8012 27.4093 47.2623 27.0163 46.741C26.6857 46.3022 26.3438 45.8487 26.3438 45.5C26.3438 45.1513 26.6857 44.6978 27.0163 44.259C27.4093 43.7377 27.8152 43.1988 27.9166 42.5545C28.0208 41.892 27.797 41.243 27.5807 40.6155C27.4053 40.1069 27.2239 39.5801 27.3254 39.269C27.4308 38.9445 27.8938 38.6213 28.3412 38.3082C28.8787 37.9327 29.435 37.5443 29.734 36.9585C30.0364 36.3659 30.0256 35.6826 30.0142 35.0214C30.0055 34.4799 29.9967 33.9209 30.1923 33.6515C30.3905 33.3794 30.9273 33.2154 31.4473 33.0569C32.0775 32.864 32.7299 32.6652 33.1982 32.1969C33.6665 31.7286 33.8654 31.0769 34.0575 30.4466C34.2161 29.9273 34.3794 29.3898 34.6522 29.1916C34.9216 28.9954 35.4813 29.0041 36.0221 29.0135C36.6832 29.0243 37.3659 29.0357 37.9591 28.7334C38.545 28.4344 38.9333 27.8787 39.3096 27.3406C39.622 26.8931 39.9459 26.4308 40.2704 26.3254C40.5808 26.2232 41.1075 26.406 41.6161 26.5807C42.2443 26.797 42.8927 27.0201 43.5552 26.9166C44.1988 26.8158 44.7383 26.4093 45.2597 26.0163C45.6978 25.6857 46.1513 25.3438 46.5 25.3438C46.8487 25.3438 47.3022 25.6857 47.741 26.0163C48.2623 26.4093 48.8012 26.8152 49.4455 26.9166C50.1066 27.0187 50.757 26.797 51.3845 26.5807C51.8938 26.4053 52.4192 26.2232 52.7316 26.3254C53.0555 26.4308 53.3793 26.8931 53.6924 27.3406C54.068 27.8781 54.457 28.4344 55.0422 28.7334C55.6348 29.0357 56.3208 29.0263 56.9792 29.0135C57.5208 29.0055 58.0804 28.9954 58.3499 29.1916C58.622 29.3898 58.7852 29.9266 58.9445 30.4466C59.1366 31.0769 59.3355 31.7293 59.8038 32.1975C60.2714 32.6658 60.9238 32.8647 61.554 33.0569C62.0727 33.2154 62.6102 33.3794 62.8084 33.6515C63.0046 33.9209 62.9952 34.4799 62.9865 35.0214C62.9757 35.6826 62.965 36.3659 63.2673 36.9585C63.5663 37.5443 64.1219 37.9327 64.6594 38.3082C65.1069 38.6213 65.5692 38.9445 65.6753 39.2697C65.7761 39.5808 65.5954 40.1069 65.42 40.6155C65.2037 41.243 64.9806 41.892 65.0841 42.5545C65.1855 43.1982 65.592 43.7377 65.9844 44.2584C66.3143 44.6978 66.6562 45.1513 66.6562 45.5C66.6562 45.8487 66.3143 46.3022 65.9837 46.7416C65.5913 47.2623 65.1855 47.8012 65.0834 48.4455L66.4117 48.6545C66.4601 48.342 66.7638 47.9396 67.0574 47.5499C67.4988 46.9633 68 46.2982 68 45.5C68 44.7018 67.4988 44.0367 67.0574 43.4501ZM61.5527 57.9438C60.9225 58.136 60.2701 58.3348 59.8025 58.8031C59.3342 59.2707 59.1353 59.9231 58.9425 60.5534C58.7846 61.0727 58.6206 61.6095 58.3478 61.8077C58.0791 62.0033 57.5161 61.9939 56.9786 61.9858C56.3174 61.975 55.6348 61.9643 55.0409 62.2666C54.4557 62.5656 54.0673 63.1213 53.6917 63.6588C53.3787 64.1062 53.0555 64.5685 52.7303 64.6746C52.4185 64.7768 51.8931 64.5954 51.3839 64.4193C50.7563 64.2037 50.1066 63.984 49.4448 64.0834C48.8005 64.1848 48.2617 64.5913 47.741 64.9837C47.3022 65.3143 46.8487 65.6562 46.5 65.6562C46.1513 65.6562 45.6978 65.3143 45.2584 64.9837C44.7377 64.5913 44.1982 64.1855 43.5545 64.0834C42.894 63.984 42.243 64.2037 41.6155 64.4193C41.1069 64.5947 40.5815 64.7768 40.269 64.6746C39.9445 64.5692 39.6207 64.1062 39.3082 63.6588C38.932 63.1206 38.5437 62.565 37.9585 62.266C37.3659 61.9636 36.6819 61.9744 36.0221 61.9858C35.4806 61.9925 34.9209 62.0039 34.6515 61.8071C34.3794 61.6089 34.2154 61.072 34.0569 60.5527C33.864 59.9225 33.6652 59.2701 33.1969 58.8025C32.7286 58.3342 32.0769 58.1353 31.446 57.9425C30.9266 57.7846 30.3891 57.6206 30.1916 57.3478L29.1052 58.1393C29.5674 58.7742 30.3575 59.0154 31.0536 59.2277C31.5266 59.3722 32.0157 59.5214 32.2468 59.7525C32.478 59.9836 32.6271 60.4721 32.7716 60.9451C32.9839 61.6418 33.2251 62.4313 33.8607 62.8935C34.4929 63.3551 35.3166 63.3396 36.0443 63.3282C36.5395 63.3228 37.0534 63.3121 37.3477 63.4619C37.6346 63.6084 37.9255 64.0249 38.207 64.4281C38.6263 65.028 39.1013 65.7073 39.8545 65.9525C40.5929 66.1904 41.3689 65.9257 42.0535 65.6892C42.5259 65.5272 43.015 65.3539 43.3462 65.411C43.6586 65.4594 44.0611 65.7631 44.4501 66.0567C45.0367 66.4988 45.7018 67 46.5 67C47.2982 67 47.9633 66.4988 48.5499 66.0574C48.9389 65.7638 49.342 65.4601 49.6545 65.4117C49.9823 65.3539 50.4748 65.5272 50.9471 65.6898C51.6325 65.9263 52.4085 66.1938 53.1455 65.9532C53.8987 65.7093 54.3737 65.0287 54.793 64.4287C55.0745 64.0263 55.3661 63.6097 55.6523 63.4633C55.9466 63.3121 56.4585 63.3201 56.9557 63.3295C57.678 63.341 58.5051 63.3551 59.1386 62.8948C59.7736 62.4326 60.0148 61.6431 60.2271 60.9464C60.3715 60.4741 60.5207 59.9843 60.7518 59.7538C60.9829 59.5227 61.4714 59.3735 61.9437 59.2298C62.6405 59.0175 63.4306 58.7756 63.8928 58.14L62.8064 57.3499C62.6095 57.6213 62.072 57.7846 61.5527 57.9438Z" fill="white"/>
<path d="M30.375 54.9062V53.5625C30.375 53.191 30.074 52.8906 29.7031 52.8906H28.3594V54.2344H29.0312V54.9062C29.0312 55.2771 28.7296 55.5781 28.3594 55.5781C27.9892 55.5781 27.6875 55.2771 27.6875 54.9062V50.875C27.6875 50.5041 27.9892 50.2031 28.3594 50.2031C28.7296 50.2031 29.0312 50.5041 29.0312 50.875V51.5469H30.375V50.875C30.375 49.7637 29.4707 48.8594 28.3594 48.8594C27.2481 48.8594 26.3438 49.7637 26.3438 50.875V54.9062C26.3438 56.0175 27.2481 56.9219 28.3594 56.9219C29.4707 56.9219 30.375 56.0175 30.375 54.9062ZM31.0469 48.8594V54.9062C31.0469 56.0175 31.9512 56.9219 33.0625 56.9219C34.1738 56.9219 35.0781 56.0175 35.0781 54.9062V48.8594H33.7344V54.9062C33.7344 55.2771 33.4327 55.5781 33.0625 55.5781C32.6923 55.5781 32.3906 55.2771 32.3906 54.9062V48.8594H31.0469ZM35.75 50.875V56.9219H37.0938V55.5781H38.4375V56.9219H39.7812V50.875C39.7812 49.7637 38.8769 48.8594 37.7656 48.8594C36.6543 48.8594 35.75 49.7637 35.75 50.875ZM38.4375 50.875V54.2344H37.0938V50.875C37.0938 50.5041 37.3954 50.2031 37.7656 50.2031C38.1358 50.2031 38.4375 50.5041 38.4375 50.875ZM45.1562 50.875V56.9219H46.5V55.5781H47.8438V56.9219H49.1875V50.875C49.1875 49.7637 48.2832 48.8594 47.1719 48.8594C46.0606 48.8594 45.1562 49.7637 45.1562 50.875ZM47.1719 50.2031C47.5427 50.2031 47.8438 50.5041 47.8438 50.875V54.2344H46.5V50.875C46.5 50.5041 46.8017 50.2031 47.1719 50.2031ZM40.4531 49.5312V52.8879C40.4531 52.89 40.4531 52.8913 40.4531 52.8926V56.9219H41.7969V54.8061L43.2878 56.6699C43.4154 56.8292 43.6083 56.9219 43.8125 56.9219H44.4844V55.5781H44.135L42.4997 53.5336C43.623 53.3569 44.4844 52.3827 44.4844 51.2109C44.4844 49.9142 43.4295 48.8594 42.1328 48.8594H41.125C40.7541 48.8594 40.4531 49.1597 40.4531 49.5312ZM41.7969 50.2031H42.1328C42.6885 50.2031 43.1406 50.6553 43.1406 51.2109C43.1406 51.7666 42.6885 52.2188 42.1328 52.2188H41.7969V50.2031ZM52.5469 52.7616L51.1554 49.282C51.0352 48.9817 50.7153 48.8144 50.4043 48.8715C50.0878 48.9319 49.8594 49.2094 49.8594 49.5312V56.9219H51.2031V53.0196L52.5946 56.4993C52.6987 56.7586 52.9487 56.9219 53.2181 56.9219C53.2604 56.9219 53.3034 56.9178 53.3457 56.9098C53.6622 56.8493 53.8906 56.5718 53.8906 56.25V48.8594H52.5469V52.7616ZM57.25 50.2031H58.5938V48.8594H54.5625V50.2031H55.9062V56.9219H57.25V50.2031ZM62.625 50.2031V48.8594H59.9375C59.566 48.8594 59.2656 49.1597 59.2656 49.5312V56.25C59.2656 56.6215 59.566 56.9219 59.9375 56.9219H62.625V55.5781H60.6094V53.5625H62.625V52.2188H60.6094V50.2031H62.625ZM63.2969 49.5312V56.25C63.2969 56.6215 63.5972 56.9219 63.9688 56.9219H66.6562V55.5781H64.6406V53.5625H66.6562V52.2188H64.6406V50.2031H66.6562V48.8594H63.9688C63.5972 48.8594 63.2969 49.1597 63.2969 49.5312Z" fill="white"/>
<path d="M63.2969 45.5C63.2969 36.2382 55.7618 28.7031 46.5 28.7031C37.2382 28.7031 29.7031 36.2382 29.7031 45.5C29.7031 46.1766 29.7488 46.8827 29.8382 47.5989L31.1712 47.4323C31.0885 46.7712 31.0469 46.1208 31.0469 45.5C31.0469 36.9793 37.9793 30.0469 46.5 30.0469C55.0214 30.0469 61.9531 36.9793 61.9531 45.5C61.9531 46.1208 61.9115 46.7712 61.8282 47.4323L63.1612 47.5989C63.2519 46.8827 63.2969 46.1766 63.2969 45.5ZM56.7575 58.7971L55.9358 57.7342C53.2087 59.8398 49.9467 60.9531 46.5 60.9531C43.054 60.9531 39.7913 59.8398 37.0649 57.7342L36.2432 58.7971C39.2075 61.0868 42.7536 62.2969 46.5 62.2969C50.2464 62.2969 53.7932 61.0868 56.7575 58.7971Z" fill="white"/>
<path d="M39.7812 38.1094H38.4375V39.4531H39.1094V46.1719H40.4531V38.7812C40.4531 38.4104 40.1521 38.1094 39.7812 38.1094ZM43.4766 38.1094C42.1798 38.1094 41.125 39.1642 41.125 40.4609V43.8203C41.125 45.117 42.1798 46.1719 43.4766 46.1719C44.7733 46.1719 45.8281 45.117 45.8281 43.8203V40.4609C45.8281 39.1642 44.7733 38.1094 43.4766 38.1094ZM44.4844 43.8203C44.4844 44.376 44.0322 44.8281 43.4766 44.8281C42.9209 44.8281 42.4688 44.376 42.4688 43.8203V40.4609C42.4688 39.9053 42.9209 39.4531 43.4766 39.4531C44.0322 39.4531 44.4844 39.9053 44.4844 40.4609V43.8203ZM48.8516 38.1094C47.5548 38.1094 46.5 39.1642 46.5 40.4609V43.8203C46.5 45.117 47.5548 46.1719 48.8516 46.1719C50.1483 46.1719 51.2031 45.117 51.2031 43.8203V40.4609C51.2031 39.1642 50.1483 38.1094 48.8516 38.1094ZM49.8594 43.8203C49.8594 44.376 49.4072 44.8281 48.8516 44.8281C48.2959 44.8281 47.8438 44.376 47.8438 43.8203V40.4609C47.8438 39.9053 48.2959 39.4531 48.8516 39.4531C49.4072 39.4531 49.8594 39.9053 49.8594 40.4609V43.8203Z" fill="white"/>
<path d="M53.2886 45.1997L55.9761 39.8247L57.1781 40.4254L54.4906 45.8004L53.2886 45.1997Z" fill="white"/>
<path d="M53.8906 40.7969H52.5469V42.1406H53.8906V40.7969Z" fill="white"/>
<path d="M57.9219 43.4844H56.5781V44.8281H57.9219V43.4844Z" fill="white"/>
</g>
<defs>
<clipPath id="clip0_101_114">
<rect width="43" height="43" fill="white" transform="translate(25 24)"/>
</clipPath>
</defs>
</svg>
