<svg width="92" height="92" viewBox="0 0 92 92" fill="none" xmlns="http://www.w3.org/2000/svg">
<path d="M91.0261 39.0698L83.8537 37.4059C82.8817 33.1217 81.1824 29.0358 78.8296 25.3259L82.7367 19.0584C82.8871 18.8173 82.9514 18.5324 82.9192 18.2501C82.8869 17.9678 82.7601 17.7047 82.5592 17.5037L74.4948 9.43934C74.294 9.23828 74.031 9.1112 73.7486 9.07882C73.4663 9.04645 73.1813 9.1107 72.9402 9.26109L66.6712 13.1675C62.9614 10.8151 58.8758 9.11609 54.5919 8.14416L52.9273 0.97175C52.8628 0.695344 52.7066 0.448898 52.4843 0.272475C52.2619 0.0960511 51.9864 2.28439e-05 51.7026 0L40.2974 0C40.0138 0.000784524 39.7387 0.0974176 39.5169 0.274212C39.2951 0.451005 39.1396 0.69758 39.0756 0.973906L37.4109 8.14631C33.1262 9.11727 29.0396 10.8156 25.3288 13.1675L19.0598 9.26109C18.8187 9.1107 18.5337 9.04645 18.2514 9.07882C17.969 9.1112 17.706 9.23828 17.5052 9.43934L9.44078 17.5037C9.23994 17.7047 9.11308 17.9678 9.08084 18.2501C9.0486 18.5324 9.1129 18.8173 9.26325 19.0584L13.1704 25.3259C10.8176 29.0358 9.11831 33.1217 8.14631 37.4059L0.973188 39.0698C0.696337 39.1343 0.449457 39.2905 0.272747 39.5132C0.0960359 39.7358 -9.71897e-05 40.0117 7.37328e-08 40.296V51.7004C0.000874868 51.9839 0.0974525 52.2588 0.274085 52.4806C0.450717 52.7024 0.697056 52.858 0.973188 52.9223L8.14631 54.5862C9.11831 58.8704 10.8176 62.9563 13.1704 66.6662L9.26325 72.9337C9.11297 73.175 9.04872 73.46 9.08095 73.7423C9.11318 74.0247 9.24 74.2879 9.44078 74.4891L17.5052 82.5527C17.706 82.7538 17.969 82.8809 18.2514 82.9133C18.5337 82.9456 18.8187 82.8814 19.0598 82.731L25.3288 78.8246C29.0384 81.1773 33.1241 82.8763 37.4081 83.8479L39.0727 91.0211C39.1368 91.2973 39.2924 91.5437 39.5142 91.7203C39.736 91.897 40.011 91.9935 40.2946 91.9942H51.7026C51.9861 91.9935 52.2611 91.897 52.4829 91.7203C52.7047 91.5437 52.8603 91.2973 52.9244 91.0211L54.5891 83.8479C58.8731 82.8763 62.9587 81.1773 66.6684 78.8246L72.9373 82.731C73.1784 82.8814 73.4634 82.9456 73.7458 82.9133C74.0281 82.8809 74.2911 82.7538 74.492 82.5527L82.5563 74.4891C82.7571 74.2879 82.8839 74.0247 82.9162 73.7423C82.9484 73.46 82.8842 73.175 82.7339 72.9337L78.8268 66.6662C81.1795 62.9563 82.8788 58.8704 83.8508 54.5862L91.0232 52.9223C91.2994 52.858 91.5459 52.7024 91.7226 52.4807C91.8994 52.2589 91.9961 51.984 91.9971 51.7004V40.296C91.9972 40.0121 91.9013 39.7365 91.7251 39.5139C91.5488 39.2913 91.3025 39.1348 91.0261 39.0698ZM89.4844 50.7006L82.5082 52.3192C82.2736 52.3737 82.0595 52.4943 81.8915 52.6668C81.7234 52.8393 81.6084 53.0565 81.5602 53.2924C80.6329 57.815 78.844 62.1168 76.291 65.9633C76.158 66.1642 76.0856 66.3992 76.0822 66.6401C76.0789 66.8811 76.1449 67.1179 76.2723 67.3224L80.0738 73.4203L73.4225 80.0709L67.3246 76.2702C67.12 76.1429 66.8832 76.077 66.6423 76.0804C66.4014 76.0837 66.1665 76.156 65.9654 76.2888C62.1193 78.8425 57.8174 80.6315 53.2946 81.558C53.0586 81.6063 52.8415 81.7213 52.669 81.8893C52.4965 82.0574 52.3758 82.2714 52.3214 82.506L50.7028 89.4844H41.2972L39.6786 82.5082C39.624 82.2737 39.5033 82.0597 39.3308 81.8917C39.1583 81.7236 38.9413 81.6086 38.7054 81.5602C34.1826 80.6338 29.8806 78.8448 26.0346 76.291C25.8335 76.1582 25.5986 76.0858 25.3577 76.0825C25.1168 76.0792 24.88 76.1451 24.6754 76.2723L18.5775 80.0687L11.9262 73.4182L15.7277 67.3203C15.8551 67.1157 15.9211 66.8789 15.9178 66.638C15.9144 66.397 15.842 66.1621 15.709 65.9611C13.1557 62.1148 11.3668 57.8129 10.4398 53.2903C10.3916 53.0543 10.2766 52.8372 10.1085 52.6647C9.94047 52.4922 9.72642 52.3715 9.49181 52.3171L2.51562 50.7006V41.2951L9.49181 39.675C9.72637 39.6207 9.94039 39.5002 10.1085 39.3278C10.2765 39.1554 10.3915 38.9384 10.4398 38.7025C11.3667 34.1796 13.1556 29.8775 15.709 26.031C15.842 25.83 15.9144 25.5951 15.9178 25.3541C15.9211 25.1132 15.8551 24.8764 15.7277 24.6718L11.9262 18.5739L18.5775 11.9233L24.6754 15.7241C24.8799 15.8515 25.1168 15.9175 25.3577 15.9142C25.5987 15.9108 25.8336 15.8384 26.0346 15.7054C29.8806 13.1516 34.1826 11.3626 38.7054 10.4363C38.9414 10.3878 39.1585 10.2726 39.331 10.1044C39.5035 9.93628 39.6241 9.72216 39.6786 9.4875L41.2972 2.51562H50.7028L52.325 9.4875C52.3794 9.72211 52.5001 9.93616 52.6726 10.1042C52.8451 10.2723 53.0622 10.3873 53.2982 10.4355C57.8209 11.362 62.1229 13.151 65.969 15.7047C66.17 15.8377 66.4049 15.9101 66.6459 15.9134C66.8868 15.9168 67.1236 15.8508 67.3282 15.7234L73.4261 11.9226L80.0774 18.5732L76.2759 24.6711C76.1485 24.8756 76.0825 25.1125 76.0858 25.3534C76.0891 25.5944 76.1616 25.8293 76.2946 26.0303C78.8477 29.8769 80.6366 34.179 81.5638 38.7018C81.6121 38.9377 81.7271 39.1547 81.8951 39.3271C82.0632 39.4995 82.2772 39.62 82.5118 39.6743L89.488 41.2929L89.4844 50.7006Z" fill="white"/>
<g clip-path="url(#clip0_4_547)">
<path d="M65.3371 34.2672L46.2675 25.0612C46.0984 24.9796 45.9016 24.9796 45.7326 25.0612L26.6629 34.2672C26.4502 34.3698 26.3151 34.5851 26.3151 34.8212V57.1788C26.3151 57.4149 26.4502 57.6302 26.6629 57.7328L45.7325 66.9388C45.817 66.9796 45.9085 67 46 67C46.0915 67 46.1829 66.9796 46.2675 66.9388L65.3371 57.7328C65.5498 57.6302 65.6849 57.4149 65.6849 57.1788V34.8213C65.6849 34.5851 65.5497 34.3699 65.3371 34.2672ZM46 26.2984L63.6545 34.8212L58.5368 37.2919C58.5044 37.2672 58.4702 37.2444 58.4327 37.2262L40.8981 28.7614L46 26.2984ZM39.5086 29.457L57.1375 37.9675L53.5269 39.7105L35.9053 31.2036L39.5086 29.457ZM57.5499 39.1346V45.5778L54.1774 47.206V40.7628L57.5499 39.1346ZM64.4544 56.7927L46.6152 65.4045V44.4134L50.8704 42.3592C51.1764 42.2114 51.3047 41.8437 51.157 41.5376C51.0092 41.2317 50.6415 41.1033 50.3354 41.2511L46 43.3441L44.2941 42.5205C43.988 42.3726 43.6203 42.5011 43.4725 42.8071C43.3248 43.113 43.4531 43.4809 43.7591 43.6286L45.3848 44.4134V65.4045L27.5456 56.7926V35.8014L41.13 42.3594C41.2162 42.4011 41.3073 42.4208 41.397 42.4208C41.6257 42.4208 41.8454 42.2926 41.9514 42.0729C42.0992 41.7669 41.9709 41.3991 41.6649 41.2513L28.3455 34.8212L34.4572 31.8707L52.9384 40.7927C52.9411 40.7965 52.9441 40.7998 52.9469 40.8035V48.1863C52.9469 48.398 53.0558 48.5948 53.2351 48.7074C53.3347 48.7699 53.4483 48.8015 53.5622 48.8015C53.6534 48.8015 53.7449 48.7812 53.8296 48.7403L58.4327 46.5182C58.6453 46.4155 58.7804 46.2003 58.7804 45.9641V38.5407L64.4544 35.8015V56.7927Z" fill="white"/>
<path d="M32.6228 54.4065L29.8243 53.0556C29.5182 52.9076 29.1505 53.0361 29.0028 53.3421C28.8551 53.6481 28.9834 54.0159 29.2893 54.1636L32.0878 55.5146C32.1741 55.5563 32.2652 55.576 32.3548 55.576C32.5836 55.576 32.8032 55.4478 32.9093 55.2281C33.0571 54.922 32.9288 54.5543 32.6228 54.4065Z" fill="white"/>
<path d="M35.1984 52.73L29.8282 50.1375C29.5221 49.9898 29.1544 50.1181 29.0067 50.4241C28.859 50.7301 28.9873 51.0979 29.2933 51.2457L34.6635 53.8382C34.7497 53.8798 34.8408 53.8995 34.9305 53.8995C35.1592 53.8995 35.3788 53.7714 35.4849 53.5517C35.6327 53.2455 35.5044 52.8777 35.1984 52.73Z" fill="white"/>
</g>
<defs>
<clipPath id="clip0_4_547">
<rect width="42" height="42" fill="white" transform="translate(25 25)"/>
</clipPath>
</defs>
</svg>
