<svg width="92" height="92" viewBox="0 0 92 92" fill="none" xmlns="http://www.w3.org/2000/svg">
<path d="M91.0261 39.0698L83.8537 37.4059C82.8817 33.1217 81.1824 29.0358 78.8296 25.3259L82.7367 19.0584C82.8871 18.8173 82.9514 18.5324 82.9192 18.2501C82.8869 17.9678 82.7601 17.7047 82.5592 17.5037L74.4948 9.43934C74.294 9.23828 74.031 9.1112 73.7486 9.07882C73.4663 9.04645 73.1813 9.1107 72.9402 9.26109L66.6712 13.1675C62.9614 10.8151 58.8758 9.11609 54.5919 8.14416L52.9273 0.97175C52.8628 0.695344 52.7066 0.448898 52.4843 0.272475C52.2619 0.0960511 51.9864 2.28439e-05 51.7026 0L40.2974 0C40.0138 0.000784524 39.7387 0.0974176 39.5169 0.274212C39.2951 0.451005 39.1396 0.69758 39.0756 0.973906L37.4109 8.14631C33.1262 9.11727 29.0396 10.8156 25.3288 13.1675L19.0598 9.26109C18.8187 9.1107 18.5337 9.04645 18.2514 9.07882C17.969 9.1112 17.706 9.23828 17.5052 9.43934L9.44078 17.5037C9.23994 17.7047 9.11308 17.9678 9.08084 18.2501C9.0486 18.5324 9.1129 18.8173 9.26325 19.0584L13.1704 25.3259C10.8176 29.0358 9.11831 33.1217 8.14631 37.4059L0.973188 39.0698C0.696337 39.1343 0.449457 39.2905 0.272747 39.5132C0.0960359 39.7358 -9.71897e-05 40.0117 7.37328e-08 40.296V51.7004C0.000874868 51.9839 0.0974525 52.2588 0.274085 52.4806C0.450717 52.7024 0.697056 52.858 0.973188 52.9223L8.14631 54.5862C9.11831 58.8704 10.8176 62.9563 13.1704 66.6662L9.26325 72.9337C9.11297 73.175 9.04872 73.46 9.08095 73.7423C9.11318 74.0247 9.24 74.2879 9.44078 74.4891L17.5052 82.5527C17.706 82.7538 17.969 82.8809 18.2514 82.9133C18.5337 82.9456 18.8187 82.8814 19.0598 82.731L25.3288 78.8246C29.0384 81.1773 33.1241 82.8763 37.4081 83.8479L39.0727 91.0211C39.1368 91.2973 39.2924 91.5437 39.5142 91.7203C39.736 91.897 40.011 91.9935 40.2946 91.9942H51.7026C51.9861 91.9935 52.2611 91.897 52.4829 91.7203C52.7047 91.5437 52.8603 91.2973 52.9244 91.0211L54.5891 83.8479C58.8731 82.8763 62.9587 81.1773 66.6684 78.8246L72.9373 82.731C73.1784 82.8814 73.4634 82.9456 73.7458 82.9133C74.0281 82.8809 74.2911 82.7538 74.492 82.5527L82.5563 74.4891C82.7571 74.2879 82.8839 74.0247 82.9162 73.7423C82.9484 73.46 82.8842 73.175 82.7339 72.9337L78.8268 66.6662C81.1795 62.9563 82.8788 58.8704 83.8508 54.5862L91.0232 52.9223C91.2994 52.858 91.5459 52.7024 91.7226 52.4807C91.8994 52.2589 91.9961 51.984 91.9971 51.7004V40.296C91.9972 40.0121 91.9013 39.7365 91.7251 39.5139C91.5488 39.2913 91.3025 39.1348 91.0261 39.0698ZM89.4844 50.7006L82.5082 52.3192C82.2736 52.3737 82.0595 52.4943 81.8915 52.6668C81.7234 52.8393 81.6084 53.0565 81.5602 53.2924C80.6329 57.815 78.844 62.1168 76.291 65.9633C76.158 66.1642 76.0856 66.3992 76.0822 66.6401C76.0789 66.8811 76.1449 67.1179 76.2723 67.3224L80.0738 73.4203L73.4225 80.0709L67.3246 76.2702C67.12 76.1429 66.8832 76.077 66.6423 76.0804C66.4014 76.0837 66.1665 76.156 65.9654 76.2888C62.1193 78.8425 57.8174 80.6315 53.2946 81.558C53.0586 81.6063 52.8415 81.7213 52.669 81.8893C52.4965 82.0574 52.3758 82.2714 52.3214 82.506L50.7028 89.4844H41.2972L39.6786 82.5082C39.624 82.2737 39.5033 82.0597 39.3308 81.8917C39.1583 81.7236 38.9413 81.6086 38.7054 81.5602C34.1826 80.6338 29.8806 78.8448 26.0346 76.291C25.8335 76.1582 25.5986 76.0858 25.3577 76.0825C25.1168 76.0792 24.88 76.1451 24.6754 76.2723L18.5775 80.0687L11.9262 73.4182L15.7277 67.3203C15.8551 67.1157 15.9211 66.8789 15.9178 66.638C15.9144 66.397 15.842 66.1621 15.709 65.9611C13.1557 62.1148 11.3668 57.8129 10.4398 53.2903C10.3916 53.0543 10.2766 52.8372 10.1085 52.6647C9.94047 52.4922 9.72642 52.3715 9.49181 52.3171L2.51562 50.7006V41.2951L9.49181 39.675C9.72637 39.6207 9.94039 39.5002 10.1085 39.3278C10.2765 39.1554 10.3915 38.9384 10.4398 38.7025C11.3667 34.1796 13.1556 29.8775 15.709 26.031C15.842 25.83 15.9144 25.5951 15.9178 25.3541C15.9211 25.1132 15.8551 24.8764 15.7277 24.6718L11.9262 18.5739L18.5775 11.9233L24.6754 15.7241C24.8799 15.8515 25.1168 15.9175 25.3577 15.9142C25.5987 15.9108 25.8336 15.8384 26.0346 15.7054C29.8806 13.1516 34.1826 11.3626 38.7054 10.4363C38.9414 10.3878 39.1585 10.2726 39.331 10.1044C39.5035 9.93628 39.6241 9.72216 39.6786 9.4875L41.2972 2.51562H50.7028L52.325 9.4875C52.3794 9.72211 52.5001 9.93616 52.6726 10.1042C52.8451 10.2723 53.0622 10.3873 53.2982 10.4355C57.8209 11.362 62.1229 13.151 65.969 15.7047C66.17 15.8377 66.4049 15.9101 66.6459 15.9134C66.8868 15.9168 67.1236 15.8508 67.3282 15.7234L73.4261 11.9226L80.0774 18.5732L76.2759 24.6711C76.1485 24.8756 76.0825 25.1125 76.0858 25.3534C76.0891 25.5944 76.1616 25.8293 76.2946 26.0303C78.8477 29.8769 80.6366 34.179 81.5638 38.7018C81.6121 38.9377 81.7271 39.1547 81.8951 39.3271C82.0632 39.4995 82.2772 39.62 82.5118 39.6743L89.488 41.2929L89.4844 50.7006Z" fill="white"/>
<g clip-path="url(#clip0_4_541)">
<path d="M53.2164 29.233C53.0781 29.136 52.9055 29.1016 52.7409 29.1385C52.5761 29.1754 52.4347 29.2799 52.3509 29.4263C52.3468 29.4335 52.3418 29.4401 52.3374 29.4466C52.1447 29.7219 51.764 29.7888 51.4888 29.5965C51.217 29.4063 50.8425 29.472 50.6523 29.7438L49.7771 30.9941C49.5869 31.2659 49.6529 31.6403 49.9244 31.8305C50.0295 31.904 50.1497 31.9394 50.2685 31.9394C50.4578 31.9394 50.6442 31.8499 50.7609 31.6832L51.3505 30.8408C51.9042 30.995 52.5057 30.8761 52.9593 30.5189L53.8451 31.1392C54.117 31.3294 54.4911 31.2634 54.6816 30.9919C54.8718 30.72 54.8058 30.3456 54.5339 30.1554L53.2164 29.233Z" fill="white"/>
<path d="M59.8582 36.7982L59.2685 37.6403C59.0784 37.9121 59.1444 38.2865 59.4159 38.4767C59.521 38.5502 59.6411 38.5853 59.76 38.5853C59.9492 38.5853 60.1356 38.4961 60.2523 38.3291L61.1279 37.0791C61.318 36.8073 61.252 36.4328 60.9805 36.2427C60.7053 36.05 60.638 35.6693 60.831 35.3937C60.8357 35.3871 60.8401 35.3806 60.8454 35.3746C60.9543 35.2454 61.004 35.0768 60.9821 34.9095C60.9605 34.7421 60.8695 34.5914 60.7312 34.4947L59.4137 33.5722C59.1419 33.3821 58.7674 33.4481 58.5772 33.7199C58.3868 33.9914 58.4531 34.3661 58.7246 34.5563L59.6104 35.1763C59.4296 35.725 59.5238 36.3306 59.8582 36.7982Z" fill="white"/>
<path d="M56.671 50.291C56.9563 50.291 57.2212 50.4052 57.4171 50.6129C57.6448 50.8538 58.0248 50.8647 58.266 50.637C58.5075 50.4093 58.5181 50.0292 58.2904 49.788C57.8716 49.3445 57.2813 49.0898 56.671 49.0898C55.4429 49.0898 54.4442 50.0889 54.4442 51.317C54.4442 52.5448 55.4429 53.5439 56.671 53.5439C57.266 53.5439 57.8253 53.3124 58.2457 52.8917C58.4803 52.6571 58.4803 52.2767 58.2457 52.0424C58.0114 51.8078 57.631 51.8078 57.3964 52.0424C57.2028 52.236 56.945 52.3427 56.671 52.3427C56.1055 52.3427 55.6453 51.8826 55.6453 51.317C55.6453 50.7512 56.1055 50.291 56.671 50.291Z" fill="white"/>
<path d="M62.0185 47.0862V42.2759C62.0185 40.6428 60.6897 39.314 59.0565 39.314H55.8694C56.0558 37.7036 55.53 36.2873 54.4208 35.5106C53.4811 34.8527 52.2637 34.7348 50.9924 35.1784C49.7909 35.5978 48.6733 36.4793 47.8462 37.6605C47.4799 38.1832 47.1884 38.7375 46.977 39.314H43.0669L51.4713 27.3113L63.1337 35.4771L61.3569 38.0149C61.1667 38.2867 61.2327 38.6611 61.5042 38.8513C61.7761 39.0415 62.1505 38.9755 62.3407 38.7037L64.2776 35.9375C64.5694 35.5218 64.4684 34.9459 64.052 34.6538L51.9318 26.1674C51.7303 26.026 51.4857 25.9716 51.2433 26.0141C51.0009 26.057 50.7897 26.1912 50.648 26.3929L47.8681 30.3633V27.9691C47.8681 27.4608 47.4546 27.0473 46.9463 27.0473H32.541C32.0327 27.0473 31.6192 27.4608 31.6192 27.9691V31.257C31.6192 31.5889 31.8882 31.8576 32.2197 31.8576C32.5516 31.8576 32.8203 31.5889 32.8203 31.257V28.2488H34.5605V39.3136H32.962C32.9148 39.3136 32.8676 39.3149 32.8203 39.3171V33.6594C32.8203 33.3278 32.5516 33.0588 32.2197 33.0588C31.8882 33.0588 31.6192 33.3278 31.6192 33.6594V39.6361C30.6592 40.1266 30.0001 41.1257 30.0001 42.2759V60.3576C30.0001 61.9908 31.3289 63.3196 32.962 63.3196H37.4464C37.7783 63.3196 38.047 63.0509 38.047 62.719C38.047 62.3874 37.7783 62.1184 37.4464 62.1184H32.962C31.9911 62.1184 31.2012 61.3286 31.2012 60.3576V42.2759C31.2012 41.5064 31.6974 40.8508 32.3862 40.6118C32.4015 40.6074 32.4168 40.6024 32.4315 40.5968C32.5992 40.5436 32.7775 40.5148 32.9623 40.5148H59.0565C60.0275 40.5148 60.8176 41.305 60.8176 42.2759V47.003H56.5178C54.1393 47.003 52.2039 48.938 52.2039 51.3169C52.2039 53.6955 54.1393 55.6305 56.5178 55.6305H60.8176V60.3576C60.8176 61.3286 60.0275 62.1184 59.0565 62.1184H54.4674C54.1355 62.1184 53.8668 62.3874 53.8668 62.719C53.8668 63.0509 54.1355 63.3196 54.4674 63.3196H59.0565C60.6897 63.3196 62.0188 61.9908 62.0188 60.3576V55.5473C63.3776 55.2248 64.3914 54.0011 64.3914 52.5453V50.0885C64.3911 48.6324 63.3773 47.4087 62.0185 47.0862ZM48.83 38.3499C50.1998 36.3936 52.3988 35.5615 53.732 36.4946C54.4999 37.0324 54.8381 38.0874 54.6582 39.3136H48.2751C48.4274 38.9821 48.6126 38.6596 48.83 38.3499ZM46.667 32.0788L41.6008 39.314H38.6413V28.2485H46.667V32.0788ZM35.7616 28.2485H37.4401V39.3136H35.7616V28.2485ZM63.19 52.545C63.19 53.5841 62.3448 54.4293 61.3056 54.4293H56.5178C54.8015 54.4293 53.4051 53.033 53.4051 51.3166C53.4051 49.6006 54.8015 48.2042 56.5178 48.2042H61.3056C62.3448 48.2042 63.19 49.0494 63.19 50.0885V52.545Z" fill="white"/>
<path d="M46.0091 52.488C42.0083 52.488 38.7533 55.7431 38.7533 59.7442C38.7533 63.745 42.0083 67 46.0091 67C50.0102 67 53.2652 63.745 53.2652 59.7442C53.2652 55.7431 50.0102 52.488 46.0091 52.488ZM46.0091 65.7988C42.6705 65.7988 39.9544 63.0827 39.9544 59.7442C39.9544 56.4053 42.6705 53.6892 46.0091 53.6892C49.348 53.6892 52.064 56.4053 52.064 59.7442C52.064 63.0827 49.348 65.7988 46.0091 65.7988Z" fill="white"/>
<path d="M46.5214 59.1438H45.497C45.1952 59.1438 44.9496 58.8982 44.9496 58.5964C44.9496 58.2945 45.1952 58.0489 45.497 58.0489H47.4574C47.7889 58.0489 48.0579 57.7799 48.0579 57.4484C48.0579 57.1168 47.7889 56.8478 47.4574 56.8478H46.7201V56.3401C46.7201 56.0085 46.4511 55.7395 46.1195 55.7395C45.7879 55.7395 45.5189 56.0085 45.5189 56.3401V56.8478H45.497C44.5329 56.8478 43.7484 57.6323 43.7484 58.5964C43.7484 59.5604 44.5329 60.3449 45.497 60.3449H46.5214C46.8233 60.3449 47.0685 60.5902 47.0685 60.892C47.0685 61.1939 46.8233 61.4394 46.5214 61.4394H44.5611C44.2292 61.4394 43.9605 61.7085 43.9605 62.04C43.9605 62.3716 44.2292 62.6406 44.5611 62.6406H45.5189V63.1483C45.5189 63.4799 45.7879 63.7489 46.1195 63.7489C46.4514 63.7489 46.7201 63.4799 46.7201 63.1483V62.6293C47.5909 62.5302 48.27 61.7892 48.27 60.892C48.2697 59.928 47.4855 59.1438 46.5214 59.1438Z" fill="white"/>
</g>
<defs>
<clipPath id="clip0_4_541">
<rect width="41" height="41" fill="white" transform="translate(30 26)"/>
</clipPath>
</defs>
</svg>
